#!OML:ASF I:\golf\golf\golf 2\Subject 1\2002-09-07\Subject1.ASF
:FULLY-SPECIFIED
:DEGREES
307
root -7.22491 18.053 -1.39286 -179.34 30.8519 -182.745
lowerback -9.02269 1.45395 10.5988
upperback -0.744762 3.01573 16.4112
thorax 3.73963 2.65407 12.5617
lowerneck -2.58811 -19.6775 -5.47893
upperneck 28.8657 -22.1479 -9.5269
head 9.04533 -10.6878 -3.99298
rclavicle -1.59028e-014 -3.49861e-014
rhumerus 21.1935 57.4112 -78.0101
rradius 27.8201
rwrist -18.4322
rhand -0.892855 -8.90887
rfingers 7.12502
rthumb 24.7349 -37.3297
lclavicle -1.59028e-014 -3.49861e-014
lhumerus 2.55868 -28.165 103.633
lradius 23.4711
lwrist 58.6153
lhand 163.913 231.486
lfingers 7.12502
lthumb -169.884 -98.7767
rfemur 4.10722 -0.856337 6.29527
rtibia 36.0194
rfoot 5.84472 -25.858
rtoes 7.71276
lfemur -13.0335 -5.80542 -22.6361
ltibia 12.1474
lfoot 16.0355 -37.9221
ltoes 32.4362
308
root -7.21973 18.0546 -1.45022 -178.804 30.1369 -182.056
lowerback -9.15002 2.02442 11.454
upperback -0.97391 3.87675 16.5053
thorax 3.46106 3.15436 12.2797
lowerneck -2.41822 -20.1521 -5.32189
upperneck 28.4047 -22.9572 -9.17388
head 8.85924 -11.0147 -3.90531
rclavicle 1.12115e-013 3.18055e-015
rhumerus 27.6921 60.0086 -72.4847
rradius 29.7736
rwrist -13.7063
rhand -0.919204 -7.31477
rfingers 7.12502
rthumb 24.7096 -35.7391
lclavicle 1.12115e-013 3.18055e-015
lhumerus 3.43655 -25.0963 102.804
lradius 24.9544
lwrist 59.0302
lhand 164.032 227.453
lfingers 7.12502
lthumb -169.769 -102.816
rfemur 4.52171 -0.980079 6.91458
rtibia 35.4901
rfoot 6.28018 -25.9193
rtoes 7.58477
lfemur -13.6782 -6.20394 -22.117
ltibia 13.2493
lfoot 15.7259 -38.3227
ltoes 32.8601
309
root -7.21574 18.0536 -1.51007 -178.601 29.4104 -181.8
lowerback -8.91835 2.61639 12.0376
upperback -1.32014 4.83472 16.3914
thorax 2.86556 3.66781 11.8497
lowerneck -2.14473 -20.6323 -4.99517
upperneck 27.9742 -23.7726 -8.86015
head 8.64033 -11.3287 -3.83274
rclavicle -2.14687e-014 7.63333e-014
rhumerus 32.8331 60.7779 -68.8294
rradius 31.4003
rwrist -9.48796
rhand -1.34838 -5.4124
rfingers 7.12502
rthumb 24.2982 -33.8924
lclavicle -2.14687e-014 7.63333e-014
lhumerus 4.0292 -23.85 101.473
lradius 27.5485
lwrist 62.0382
lhand 160.106 222.397
lfingers 7.12502
lthumb -173.558 -107.721
rfemur 5.03475 -1.21323 7.06593
rtibia 35.0062
rfoot 6.70497 -25.8317
rtoes 7.95669
lfemur -14.0512 -6.51504 -22.0407
ltibia 14.0994
lfoot 15.9783 -38.5477
ltoes 34.0209
310
root -7.21435 18.05 -1.57052 -178.519 28.6831 -181.717
lowerback -8.50263 3.22513 12.5515
upperback -1.68059 5.82759 16.1409
thorax 2.18335 4.1721 11.2661
lowerneck -2.10956 -21.0814 -4.51585
upperneck 27.6742 -24.5558 -8.49583
head 8.49578 -11.6117 -3.79279
rclavicle -2.8625e-014 -7.31528e-014
rhumerus 36.1816 59.8485 -67.6512
rradius 32.4895
rwrist -4.02421
rhand -0.418596 -2.36644
rfingers 7.12502
rthumb 25.1894 -30.7242
lclavicle -2.8625e-014 -7.31528e-014
lhumerus 4.83378 -23.1058 99.7429
lradius 30.4231
lwrist 65.3637
lhand 157.151 217.372
lfingers 7.12502
lthumb -176.411 -112.678
rfemur 5.54286 -1.45088 7.03998
rtibia 34.5835
rfoot 6.93996 -25.6979
rtoes 8.8268
lfemur -14.223 -6.83421 -22.1374
ltibia 14.6474
lfoot 16.6188 -38.5325
ltoes 35.5231
311
root -7.21142 18.046 -1.63052 -178.404 27.9328 -181.617
lowerback -8.15866 3.77688 13.0231
upperback -1.9604 6.71539 15.9118
thorax 1.65898 4.61795 10.7391
lowerneck -2.19691 -21.4602 -4.14168
upperneck 27.2848 -25.2766 -7.95353
head 8.38532 -11.8713 -3.69916
rclavicle -1.43125e-014 -2.03555e-013
rhumerus 39.0948 58.5362 -67.1251
rradius 33.4774
rwrist 1.17109
rhand 0.0899037 1.138
rfingers 7.12502
rthumb 25.6765 -27.1504
lclavicle -1.43125e-014 -2.03555e-013
lhumerus 6.02894 -21.2108 98.2323
lradius 32.7973
lwrist 66.6365
lhand 155.141 213.219
lfingers 7.12502
lthumb -178.353 -116.807
rfemur 5.99522 -1.6729 7.066
rtibia 34.212
rfoot 7.44623 -25.6504
rtoes 10.1279
lfemur -14.3237 -7.23291 -22.1941
ltibia 14.98
lfoot 16.2942 -39.0317
ltoes 35.2892
312
root -7.20606 18.0446 -1.68566 -178.285 27.1386 -181.693
lowerback -7.83474 4.24829 13.1658
upperback -2.26629 7.51432 15.692
thorax 1.11177 5.01293 10.3916
lowerneck -2.22237 -21.7775 -3.81557
upperneck 26.7449 -25.9185 -7.3881
head 8.22792 -12.1079 -3.57269
rclavicle -2.38542e-014 5.725e-014
rhumerus 42.0619 57.5333 -66.5682
rradius 34.5138
rwrist 5.11177
rhand -1.10718 3.73943
rfingers 7.12502
rthumb 24.5295 -24.7094
lclavicle -2.38542e-014 5.725e-014
lhumerus 7.12231 -19.2513 96.6854
lradius 35.5304
lwrist 66.9288
lhand 153.357 210.142
lfingers 7.12502
lthumb -180.075 -119.878
rfemur 6.33824 -1.91535 6.97758
rtibia 33.8645
rfoot 7.9858 -25.9754
rtoes 13.579
lfemur -14.5185 -7.58244 -22.3956
ltibia 15.2532
lfoot 15.9026 -39.6986
ltoes 34.7078
